<mxfile host="app.diagrams.net" modified="2020-12-27T11:04:33.161Z" agent="5.0 (Windows)" etag="mEQMCVvkBnCUmBR-5FOR" version="14.1.2" type="github">
  <diagram name="Page-1" id="e7e014a7-5840-1c2e-5031-d8a46d1fe8dd">
    <mxGraphModel dx="868" dy="451" grid="1" gridSize="10" guides="1" tooltips="1" connect="1" arrows="1" fold="1" page="1" pageScale="1" pageWidth="1169" pageHeight="826" background="#ffffff" math="0" shadow="0">
      <root>
        <mxCell id="0" />
        <mxCell id="1" parent="0" />
        <mxCell id="2" value="Librairies and variables" style="swimlane;whiteSpace=wrap" parent="1" vertex="1">
          <mxGeometry x="164.5" y="128" width="285.5" height="570" as="geometry" />
        </mxCell>
        <mxCell id="5" value="t=0" style="ellipse;shape=startState;fillColor=#000000;fontColor=#FFFFFF;strokeColor=#D79B00;" parent="2" vertex="1">
          <mxGeometry x="100" y="40" width="30" height="30" as="geometry" />
        </mxCell>
        <mxCell id="6" value="" style="edgeStyle=elbowEdgeStyle;elbow=horizontal;verticalAlign=bottom;endArrow=open;endSize=8;endFill=1;rounded=0;strokeColor=#D79B00;" parent="2" source="5" edge="1">
          <mxGeometry x="100" y="40" as="geometry">
            <mxPoint x="115.5" y="110" as="targetPoint" />
          </mxGeometry>
        </mxCell>
        <mxCell id="uZpNa7PoxAKmWT-TbL3o-44" style="edgeStyle=orthogonalEdgeStyle;rounded=0;orthogonalLoop=1;jettySize=auto;html=1;exitX=0.5;exitY=1;exitDx=0;exitDy=0;entryX=0.5;entryY=0;entryDx=0;entryDy=0;fontColor=#FFFFFF;fillColor=#ffe6cc;strokeColor=#D79B00;" edge="1" parent="2" source="uZpNa7PoxAKmWT-TbL3o-42" target="uZpNa7PoxAKmWT-TbL3o-43">
          <mxGeometry relative="1" as="geometry" />
        </mxCell>
        <mxCell id="uZpNa7PoxAKmWT-TbL3o-42" value="&lt;p style=&quot;margin: 0px ; margin-top: 4px ; text-align: center ; text-decoration: underline&quot;&gt;&lt;b&gt;Librairies&lt;/b&gt;&lt;br&gt;&lt;/p&gt;&lt;hr&gt;&lt;p style=&quot;margin: 0px ; margin-left: 8px&quot;&gt;hulp.h&lt;/p&gt;&lt;p style=&quot;margin: 0px ; margin-left: 8px&quot;&gt;&lt;br&gt;&lt;/p&gt;" style="verticalAlign=top;align=left;overflow=fill;fontSize=12;fontFamily=Helvetica;html=1;" vertex="1" parent="2">
          <mxGeometry x="35" y="112" width="160" height="48" as="geometry" />
        </mxCell>
        <mxCell id="uZpNa7PoxAKmWT-TbL3o-46" style="edgeStyle=orthogonalEdgeStyle;rounded=0;orthogonalLoop=1;jettySize=auto;html=1;exitX=0.5;exitY=1;exitDx=0;exitDy=0;strokeColor=#D79B00;fontColor=#FFFFFF;" edge="1" parent="2" source="uZpNa7PoxAKmWT-TbL3o-43" target="uZpNa7PoxAKmWT-TbL3o-52">
          <mxGeometry relative="1" as="geometry">
            <mxPoint x="115.5" y="292" as="targetPoint" />
          </mxGeometry>
        </mxCell>
        <mxCell id="uZpNa7PoxAKmWT-TbL3o-43" value="&lt;p style=&quot;margin: 0px ; margin-top: 4px ; text-align: center ; text-decoration: underline&quot;&gt;&lt;b&gt;SoC variables&lt;/b&gt;&lt;br&gt;&lt;/p&gt;&lt;hr&gt;&lt;p style=&quot;margin: 0px ; margin-left: 8px&quot;&gt;TIME_TO_SLEEP = 60 &lt;br&gt;&lt;/p&gt;" style="verticalAlign=top;align=left;overflow=fill;fontSize=12;fontFamily=Helvetica;html=1;" vertex="1" parent="2">
          <mxGeometry x="35" y="212" width="160" height="48" as="geometry" />
        </mxCell>
        <mxCell id="uZpNa7PoxAKmWT-TbL3o-52" value="&lt;p style=&quot;margin: 0px ; margin-top: 4px ; text-align: center ; text-decoration: underline&quot;&gt;&lt;b&gt;Ulp variables&lt;/b&gt;&lt;br&gt;&lt;/p&gt;&lt;hr&gt;&lt;p style=&quot;margin: 0px ; margin-left: 8px&quot;&gt;ACQUISITION = 3&lt;/p&gt;&lt;p style=&quot;margin: 0px ; margin-left: 8px&quot;&gt;NB_MEASURE = 1&lt;/p&gt;&lt;p style=&quot;margin: 0px ; margin-left: 8px&quot;&gt;COUNT_ANEMO = 0&lt;/p&gt;&lt;p style=&quot;margin: 0px ; margin-left: 8px&quot;&gt;WINDSPD = 0&lt;/p&gt;&lt;p style=&quot;margin: 0px ; margin-left: 8px&quot;&gt;GUTS = 0&lt;/p&gt;" style="verticalAlign=top;align=left;overflow=fill;fontSize=12;fontFamily=Helvetica;html=1;" vertex="1" parent="2">
          <mxGeometry x="35" y="312" width="160" height="108" as="geometry" />
        </mxCell>
        <mxCell id="3" value="ULP" style="swimlane;whiteSpace=wrap" parent="1" vertex="1">
          <mxGeometry x="450" y="128" width="274.5" height="570" as="geometry" />
        </mxCell>
        <mxCell id="uZpNa7PoxAKmWT-TbL3o-54" style="edgeStyle=orthogonalEdgeStyle;rounded=0;orthogonalLoop=1;jettySize=auto;html=1;exitX=0.5;exitY=1;exitDx=0;exitDy=0;entryX=0.5;entryY=0;entryDx=0;entryDy=0;strokeColor=#D79B00;fontColor=#000000;" edge="1" parent="3" source="uZpNa7PoxAKmWT-TbL3o-47" target="uZpNa7PoxAKmWT-TbL3o-50">
          <mxGeometry relative="1" as="geometry" />
        </mxCell>
        <mxCell id="uZpNa7PoxAKmWT-TbL3o-47" value="&lt;b&gt;ulp_init()&lt;/b&gt;" style="html=1;strokeColor=#000000;" vertex="1" parent="3">
          <mxGeometry x="82" y="40" width="110" height="20" as="geometry" />
        </mxCell>
        <mxCell id="uZpNa7PoxAKmWT-TbL3o-50" value="&lt;p style=&quot;margin: 0px ; margin-top: 4px ; text-align: center ; text-decoration: underline&quot;&gt;&lt;b&gt;Labels&lt;/b&gt;&lt;br&gt;&lt;/p&gt;&lt;hr&gt;&lt;p style=&quot;margin: 0px ; margin-left: 8px&quot;&gt;LBL_BEGIN&lt;/p&gt;&amp;nbsp;&amp;nbsp; LBL_ACQUISITION" style="verticalAlign=top;align=left;overflow=fill;fontSize=12;fontFamily=Helvetica;html=1;" vertex="1" parent="3">
          <mxGeometry x="55" y="82" width="160" height="68" as="geometry" />
        </mxCell>
        <mxCell id="4" value="Thread 3" style="swimlane;whiteSpace=wrap" parent="1" vertex="1">
          <mxGeometry x="724.5" y="128" width="280" height="570" as="geometry" />
        </mxCell>
        <mxCell id="33" value="process&#xa;command" style="" parent="4" vertex="1">
          <mxGeometry x="90" y="405" width="110" height="50" as="geometry" />
        </mxCell>
        <mxCell id="38" value="" style="ellipse;shape=endState;fillColor=#000000;strokeColor=#ff0000" parent="4" vertex="1">
          <mxGeometry x="130" y="500" width="30" height="30" as="geometry" />
        </mxCell>
        <mxCell id="39" value="" style="endArrow=open;strokeColor=#FF0000;endFill=1;rounded=0" parent="4" source="33" target="38" edge="1">
          <mxGeometry relative="1" as="geometry" />
        </mxCell>
      </root>
    </mxGraphModel>
  </diagram>
</mxfile>
